<?xml version="1.0" encoding="utf-8"?>
<!-- Generator: Adobe Illustrator 24.0.1, SVG Export Plug-In . SVG Version: 6.00 Build 0)  -->
<svg version="1.1" id="Layer_1" xmlns="http://www.w3.org/2000/svg" xmlns:xlink="http://www.w3.org/1999/xlink" x="0px" y="0px"
	 viewBox="0 0 332.7 459.9" style="enable-background:new 0 0 332.7 459.9;" xml:space="preserve">
<style type="text/css">
	.st0{fill:#F01313;}
</style>
<title>firefighting-icon</title>
<g id="pxpDrD.tif">
	<path class="st0" d="M242,281.2c23.8-53.9,15.1-104.2-17-152.2c24.8,15.7,61.6,57,74.1,101.2c12.1,43.2,4.8,83.7-15.2,122.9l1.5,1
		c4.9-5.4,10.3-10.5,14.7-16.3c14-18.5,22.3-39.9,29.8-61.6c0.5-1.9,1.5-3.6,2.9-5c0,3.3,0.1,6.7,0,10
		c-1.2,35.8-8.2,70.2-26.1,101.8c-21.9,38.6-55.2,61.6-98,71.6c-3.4,0.8-6.8,1.4-10.3,1.6c0.6-0.4,1.3-0.7,2-1
		c22.8-6.7,33-23.9,37.5-45.5c6.6-31.6-8.9-61-33.6-79.7c12.9,21.6,16.4,44,6.5,68.8c0-6.3,0.5-11.5-0.1-16.6
		c-1.9-15.1-10.3-26.7-20.9-37c-5.4-5.3-10.9-10.8-15.4-17c-10.8-14.8-14.8-31-7.3-48.8c-11.4,1.2-25.1,14.2-28.7,27.4
		c-2.7,9.8-2.1,19.3,3.2,28.4c6,10.2,10.8,21,11.9,33c0.3,4.1,0.1,8.2-0.5,12.2c-4.1-9.6-12.4-14.8-20-20.6
		c-13.4-10.2-16.2-17.8-12-34c0.2-0.8,0.3-1.6,0.4-2.6c-13.3,8.2-16.8,29.9-7.1,43c5.4,7.2,10.4,14.6,12.2,23.7
		c2.1,8.9-0.4,18.3-6.5,25.2c-6,7-6.7,13.9-2,21.9c6.6,11.3,17.5,16.4,29.5,19.6c5.1,1.4,10.4,1.9,16.6,3c-8.8,0-16.6,0.5-24.3-0.1
		c-23.5-1.9-46.2-7.2-67.3-18.3c-36.9-19.3-56.6-50.3-62.1-91.2c-2.5-18.3,3-35.1,7.5-52.3c2.5-9.4,4.6-19.1,4.9-28.8
		c0.4-13.9-7.2-24.9-16.9-34.4c-2.1-1.9-4.1-4-5.9-6.2c18.2,5.7,33.3,15.6,43,32.3s10,35.1,7.1,54.2c1.5-1.6,2.9-3.3,4.2-5
		c13.7-19.9,14.4-41.2,5.2-62.6c-4.9-11.3-11-22.6-18.9-32c-22-26.2-17.7-60.2-0.1-84.4c3.8-5.2,8.8-9.7,13.2-14.6l1.3,0.9
		c-1,3.2-2,6.3-2.9,9.5c-3.1,10-4,20.6-2.7,31.1c1.6,12.7,8.3,24.2,18.5,31.9c6.6,5.1,13.4,9.8,19.9,15
		c13.1,10.4,27.1,20.1,31.8,38.8c4.2-14.2,2.8-27.2,0.1-40.1c-4-20.3-11.8-39.6-23-57C77.9,118,84.4,76.8,107.3,52
		c12.2-13.2,27.2-22,44.9-28.1c-1.9,4.7-3.7,8.7-5,12.8c-8.8,27.9-3.9,54.1,9.8,79.2c10.7,19.7,25.9,35.7,42.2,50.8
		c19.7,18.3,35.2,39.4,42.2,65.8c4.2,15.5,4.8,31.1,0.8,46.8C242.1,279.9,242,280.6,242,281.2z"/>
	<path class="st0" d="M201.4,0c-0.5,5.2-1,9.1-1.3,13c-0.8,10.5,0.7,21,4.4,30.8c4.9,13.5,8.2,27.4,5.6,41.9
		c-1.8,9.9-5.7,18.7-13.6,25.4c-0.5-0.2-1.1-0.2-1.3-0.5c-15.3-23.5-23.3-48.8-16.9-76.9C181.3,20.3,189.4,9.6,201.4,0z"/>
	<path class="st0" d="M243.4,132.7c-13-12-15.4-22.4-9.6-38.1c1.5-4,2.6-8.2,3.4-12.4c0.8-4.2,1-8.4,1.5-12.7
		C260.4,86.5,259.2,115.8,243.4,132.7z"/>
</g>
</svg>
